<?xml version="1.0" encoding="UTF-8" standalone="no"?>
<svg
   xmlns:dc="http://purl.org/dc/elements/1.1/"
   xmlns:cc="http://creativecommons.org/ns#"
   xmlns:rdf="http://www.w3.org/1999/02/22-rdf-syntax-ns#"
   xmlns:svg="http://www.w3.org/2000/svg"
   xmlns="http://www.w3.org/2000/svg"
   xmlns:sodipodi="http://sodipodi.sourceforge.net/DTD/sodipodi-0.dtd"
   xmlns:inkscape="http://www.inkscape.org/namespaces/inkscape"
   inkscape:version="1.0 (4035a4f, 2020-05-01)"
   sodipodi:docname="1F4CC_2.svg"
   version="1.1"
   viewBox="0 0 72 72"
   id="emoji">
  <metadata
     id="metadata38">
    <rdf:RDF>
      <cc:Work
         rdf:about="">
        <dc:format>image/svg+xml</dc:format>
        <dc:type
           rdf:resource="http://purl.org/dc/dcmitype/StillImage" />
        <dc:title></dc:title>
      </cc:Work>
    </rdf:RDF>
  </metadata>
  <defs
     id="defs36" />
  <sodipodi:namedview
     inkscape:current-layer="emoji"
     inkscape:window-maximized="0"
     inkscape:window-y="22"
     inkscape:window-x="0"
     inkscape:cy="29.825492"
     inkscape:cx="19.997538"
     inkscape:zoom="6.1123261"
     showgrid="false"
     id="namedview34"
     inkscape:window-height="722"
     inkscape:window-width="1054"
     inkscape:pageshadow="2"
     inkscape:pageopacity="0"
     guidetolerance="10"
     gridtolerance="10"
     objecttolerance="10"
     borderopacity="1"
     bordercolor="#666666"
     pagecolor="#ffffff" />
  <g
     transform="rotate(43.918227,35.090263,36.511385)"
     id="color">
    <path
       id="path10"
       d="M 46.288,34.3932 C 45.4675,32.9927 42.7124,31.834 42.7124,31.834 l -1.0343,-4.1975 -1.4782,-13.0482 -9.8551,-0.6051 -0.9527,4.2373 c 0,0 0.0101,-0.0118 0.0231,-0.0265 0.152,-0.3584 -1.2544,12.4185 -1.2544,12.4185 -0.0635,0.3545 -1.4459,1.7772 -1.7857,1.8963 -2.8213,0.9893 -3.0856,3.5212 -3.57,4.5505 l 25.4157,0.0322 c -0.0304,-0.143 -1.2274,-1.494 -1.9328,-2.6983 z"
       stroke="none"
       fill="#ea5a47" />
    <polygon
       id="polygon12"
       points="40.2816,14.1282 39.8274,8.7892 31.0083,8.5994 29.5845,14.5883 "
       stroke="none"
       fill="#ea5a47" />
    <polygon
       id="polygon14"
       points="37.1401,14.5883 40.8274,14.5883 39.8274,8.7892 36.848,8.7892 "
       stroke="none"
       fill="#d22f27" />
    <path
       id="path16"
       d="m 33.051,40.2346 c 0,0 -0.0242,2.6808 -0.0242,3.2335 l 0.3163,12.4946 2.5622,7.4335 2.1319,-4.849 0.2783,-18.2953 z"
       stroke="none"
       fill="#d0cfce" />
    <polygon
       id="polygon18"
       points="38.3093,41.6967 38.32,40.2367 35.6609,40.2456 35.8736,62.4789 38.246,55.9627 "
       stroke="none"
       fill="#9b9b9a" />
    <path
       id="path20"
       d="m 38.0116,31.834 c 0,0 1.4394,1.1587 2.2599,2.5592 0.7054,1.2043 1.238,2.5553 1.2684,2.6983 l 6.2498,-0.3612 c -0.4834,-1.0264 -1.2141,-2.9608 -4.0383,-3.951 -0.3398,-0.1191 -0.6609,-0.5908 -0.7244,-0.9453 0,0 -2.212,-14.0382 -2.0498,-13.5879 l -0.6956,-4.1179 -3.1415,0.4601 0.8499,15.3903 z"
       stroke="none"
       fill="#d22f27" />
  </g>
  <g
     transform="rotate(43.918227,35.090263,36.511385)"
     id="hair" />
  <g
     transform="rotate(43.918227,35.090263,36.511385)"
     id="skin" />
  <g
     transform="rotate(43.918227,35.090263,36.511385)"
     id="skin-shadow" />
  <g
     transform="rotate(43.918227,35.090263,36.511385)"
     id="line">
    <polyline
       id="polyline26"
       points="33.069,41.2315 33.0753,56.0146 35.9361,63.8727 38.2539,55.9913 38.2479,41.2352"
       stroke-width="2"
       stroke-miterlimit="10"
       stroke-linejoin="round"
       stroke-linecap="round"
       stroke="#000000"
       fill="none" />
    <path
       id="path28"
       d="m 30.3187,18.576 -2.3773,13.26 c -5.2242,1.8318 -5.4803,5.4953 -5.4803,5.4953 h 25.4502 c 0,0 -0.2561,-3.6635 -5.4803,-5.4953 l -2.3773,-13.26"
       stroke-width="2"
       stroke-miterlimit="10"
       stroke-linejoin="round"
       stroke-linecap="round"
       stroke="#000000"
       fill="none" />
    <polygon
       id="polygon30"
       points="30.5845,8.7892 39.8274,8.7892 40.8274,14.5883 29.5845,14.5883 "
       stroke-width="2"
       stroke-miterlimit="10"
       stroke-linejoin="round"
       stroke-linecap="round"
       stroke="#000000"
       fill="none" />
  </g>
</svg>
